<svg xmlns="http://www.w3.org/2000/svg" enable-background="new 0 0 64 64" viewBox="0 0 64 64" id="chat">
  <path d="M10.1,50.4c0.2,0.1,0.4,0.2,0.6,0.2c0.2,0,0.4-0.1,0.6-0.2l7.3-5.2c1.9,0.5,3.8,0.7,5.8,0.7C35.2,46,44,38.7,44,29.7
			c0-9-8.7-16.3-19.5-16.3S5,20.7,5,29.7c0,4.9,2.7,9.6,7.3,12.7l-2.5,6.9C9.7,49.6,9.8,50.1,10.1,50.4z M7,29.7
			c0-7.9,7.8-14.3,17.5-14.3S42,21.8,42,29.7C42,37.6,34.1,44,24.5,44c-2,0-3.9-0.3-5.8-0.8c-0.3-0.1-0.6,0-0.9,0.1l-5.1,3.6
			l1.7-4.6c0.2-0.4,0-0.9-0.4-1.2C9.6,38.4,7,34.2,7,29.7z"></path>
  <path d="M39.5 13.4c-.4 0-.9 0-1.3 0-.6 0-1 .5-.9 1.1 0 .6.5 1 1.1.9.4 0 .8 0 1.2 0 9.6 0 17.5 6.4 17.5 14.3 0 4.5-2.6 8.7-7 11.4-.4.2-.6.7-.4 1.2l1.7 4.6-5.1-3.6c-.2-.2-.6-.2-.9-.1-2.2.6-4.6.9-6.9.8-.5 0-1 .4-1.1.9 0 .6.4 1 .9 1.1 2.4.1 4.8-.1 7.1-.7l7.3 5.2c.2.1.4.2.6.2.2 0 .4-.1.6-.2.3-.3.5-.7.3-1.1l-2.5-6.9c4.6-3.1 7.3-7.7 7.3-12.7C59 20.7 50.3 13.4 39.5 13.4zM15 27h20c.6 0 1-.4 1-1s-.4-1-1-1H15c-.6 0-1 .4-1 1S14.4 27 15 27zM31 33H19c-.6 0-1 .4-1 1s.4 1 1 1h12c.6 0 1-.4 1-1S31.6 33 31 33z"></path>
</svg>
