<?xml version="1.0" encoding="utf-8"?>
<!-- Generator: Adobe Illustrator 27.5.0, SVG Export Plug-In . SVG Version: 6.00 Build 0)  -->
<svg version="1.1" id="Ñëîé_1" xmlns="http://www.w3.org/2000/svg" xmlns:xlink="http://www.w3.org/1999/xlink" x="0px" y="0px"
	 viewBox="0 0 600 450" style="enable-background:new 0 0 600 450;" xml:space="preserve">
<g>
	
		<radialGradient id="SVGID_1_" cx="141.0078" cy="153.0036" r="265.165" fx="-109.0539" fy="64.7899" gradientUnits="userSpaceOnUse">
		<stop  offset="0" style="stop-color:#2B237C"/>
		<stop  offset="1" style="stop-color:#180D5B"/>
	</radialGradient>
	<rect y="0" style="fill:url(#SVGID_1_);" width="600" height="450"/>
</g>
<radialGradient id="SVGID_00000152971904361153805040000009978652023515321504_" cx="-2130.3652" cy="-319.7945" r="184.3703" gradientTransform="matrix(-0.866 0.5 0.866 0.5 -1277.7692 1536.9978)" gradientUnits="userSpaceOnUse">
	<stop  offset="0" style="stop-color:#42E8E0"/>
	<stop  offset="0.1539" style="stop-color:#33AEB9"/>
	<stop  offset="0.3113" style="stop-color:#267A95"/>
	<stop  offset="0.4663" style="stop-color:#1B5078"/>
	<stop  offset="0.6156" style="stop-color:#132E61"/>
	<stop  offset="0.7574" style="stop-color:#0D1651"/>
	<stop  offset="0.8889" style="stop-color:#090847"/>
	<stop  offset="1" style="stop-color:#080344"/>
</radialGradient>
<ellipse style="opacity:0.5;fill:url(#SVGID_00000152971904361153805040000009978652023515321504_);" cx="290.185" cy="311.918" rx="225.803" ry="130.368"/>
<path style="opacity:0.4;fill:#0B0244;" d="M247.83,245.872c-0.875-0.758-2.259-1.171-3.337-0.994
	c-3.651,0.598-12.04,2.908-17.013,11.732c-5.835,10.353,1.421,18.329,2.948,19.837c-2.226,2.692-3.973,4.431-4.697,5.121
	c-2.267-1.465-4.665-3.042-7.168-4.723c-4.057-2.701-8.346-5.694-12.838-8.884c-1.11-0.805-2.236-1.621-3.375-2.446
	c-0.57-0.413-1.143-0.829-1.719-1.247c-0.567-0.423-1.137-0.848-1.71-1.276c-1.146-0.855-2.305-1.72-3.475-2.593
	c-1.12-0.86-2.252-1.729-3.392-2.605c1.249-1.048,3.68-3.143,6.663-5.975c2.522,0.31,15.976,1.48,22.106-7.798
	c5.195-7.861,1.055-13.868-1.165-16.247c-0.649-0.695-1.825-1.149-2.835-1.092c-3.421,0.194-11.458,1.41-17.634,8.269
	c-7.287,8.092-2.125,15.29-1.066,16.599c-2.913,2.764-5.292,4.817-6.551,5.874c-2.223-1.698-4.401-3.456-6.632-5.225
	c-1.192-0.932-2.326-1.897-3.497-2.854c-1.161-0.961-2.343-1.922-3.502-2.896c-3.774-3.213-7.553-6.49-11.197-9.823
	c0.638-0.396,1.705-1.068,3.091-1.975c1.518-0.993,3.424-2.275,5.553-3.771c2.097,0.391,14.754,2.361,21.869-5.5
	c5.956-6.581,2.909-12.094,1.158-14.313c-0.512-0.648-1.551-1.116-2.505-1.126c-3.232-0.035-10.931,0.551-17.668,6.194
	c-7.777,6.514-4.271,12.989-3.356,14.399c-3.996,2.811-7.184,4.837-8.568,5.698c-0.649-0.596-1.304-1.191-1.942-1.791
	c-6.074-5.646-11.792-11.403-16.973-17.075c0.951-0.442,3.744-1.807,7.278-4.119c0.785-0.514,1.615-1.092,2.461-1.699
	c2.016,0.28,12.35,1.332,17.413-5.609c4.309-5.908,1.303-10.544-0.338-12.39c-0.48-0.539-1.377-0.902-2.164-0.874
	c-2.664,0.096-8.949,0.901-13.985,6.031c-5.792,5.899-2.369,11.329-1.473,12.538c-4.511,3.238-8.32,5.13-9.566,5.714
	c-2.169-2.384-4.251-4.754-6.208-7.09c-1.361-1.62-2.664-3.222-3.914-4.805c0.017-0.019,0.037-0.036,0.039-0.062
	c0.007-0.106-0.126-0.224-0.298-0.268c-0.435-0.554-0.864-1.105-1.285-1.653c0.487-0.738,2.616-3.976,5.197-8.038
	c2.125,0.062,11.796-0.091,14.68-7.796c2.486-6.645-1.508-11.147-3.512-12.889c-0.586-0.509-1.515-0.788-2.24-0.671
	c-2.455,0.397-8.098,1.938-11.462,7.851c-3.924,6.897,0.849,12.232,1.91,13.291c-2.323,3.656-4.275,6.637-4.985,7.716
	c-4.067-5.329-7.478-10.376-10.224-14.916c-0.503-0.822-0.996-1.627-1.478-2.414c-0.479-0.787-0.862-1.559-1.281-2.31
	c-0.111-0.205-0.216-0.397-0.326-0.599c0.993-0.599,4.538-3.315,1.38-10.122c-2.788-6.009-7.402-9.254-9.408-10.443
	c-0.592-0.351-1.348-0.451-1.822-0.242c-1.622,0.715-4.847,2.981-2.77,9.277c2.442,7.403,10.523,10.932,12.103,11.56
	c0.103,0.196,0.2,0.381,0.304,0.58c0.406,0.753,0.775,1.528,1.24,2.318c0.468,0.79,0.947,1.598,1.436,2.424
	c2.961,5.06,6.738,10.757,11.324,16.78c-2.567-0.619-8.913-2.142-16.202-3.84c-0.94-1.068-5.841-6.008-18.207-8.74
	c-10.664-2.356-16.332-1.227-18.399-0.57c-0.61,0.194-0.768,0.703-0.38,1.226c1.325,1.789,5.468,5.98,16.666,9.1
	c12.969,3.614,19.058,0.182,20.266-0.637c7.702,1.794,14.361,3.395,16.625,3.942c1.29,1.683,2.638,3.39,4.054,5.116
	c2.368,2.898,4.915,5.847,7.6,8.817c-1.685,0.144-6.353,0.505-12.78,0.703c-1.303-0.929-8.337-5.497-21.088-5.778
	c-10.876-0.24-15.4,2.331-16.922,3.546c-0.449,0.359-0.323,0.971,0.303,1.476c2.141,1.725,8.094,5.53,19.855,6.515
	c13.63,1.141,17.316-4.141,17.972-5.341c6.609-0.201,11.386-0.575,13.021-0.716c4.709,5.185,9.854,10.431,15.285,15.589
	c1.181,1.134,2.385,2.26,3.6,3.381c-1.531,0.226-6.174,0.892-12.612,1.64c-1.732-0.992-10.438-5.5-23.977-4.352
	c-11.635,0.987-15.753,4.553-17.043,6.167c-0.381,0.476-0.081,1.185,0.721,1.708c2.745,1.789,10.107,5.59,22.885,5.38
	c15.081-0.248,17.391-7.168,17.696-8.492c6.619-0.769,11.348-1.451,12.758-1.66c3.085,2.834,6.252,5.629,9.417,8.379
	c1.15,0.987,2.324,1.96,3.476,2.934c1.163,0.969,2.289,1.947,3.473,2.892c2.346,1.898,4.633,3.788,6.979,5.603
	c0.291,0.228,0.576,0.451,0.865,0.678c-1.07,0.387-4.104,1.44-8.913,2.787c-2.092-0.965-12.939-5.464-27.527-2.404
	c-12.468,2.616-15.976,7.461-16.935,9.583c-0.283,0.627,0.245,1.453,1.271,1.993c3.51,1.846,12.645,5.581,26.584,3.772
	c16.663-2.163,17.047-11.066,16.994-12.55c4.889-1.369,7.95-2.436,8.994-2.814c0.711,0.557,1.425,1.116,2.128,1.667
	c1.164,0.886,2.317,1.763,3.457,2.631c0.57,0.434,1.138,0.866,1.702,1.295c0.574,0.424,1.144,0.846,1.711,1.265
	c1.134,0.838,2.255,1.667,3.36,2.484c4.474,3.241,8.749,6.282,12.797,9.03c2.723,1.865,5.321,3.602,7.765,5.207
	c-1.023,0.415-4.162,1.649-8.992,3.219c-1.735-0.788-14.116-5.993-30.387-2.08c-13.456,3.236-17.003,8.736-17.925,11.131
	c-0.272,0.707,0.352,1.617,1.503,2.194c3.939,1.973,14.127,5.914,29.237,3.542c17.734-2.784,17.958-12.432,17.823-14.349
	c5.062-1.64,8.309-2.925,9.264-3.314c4.568,2.992,8.565,5.5,11.734,7.445c2.485,1.524,4.466,2.704,5.831,3.502
	c1.357,0.798,2.119,1.225,2.119,1.225l1.516-1.387c0,0-0.709-0.39-2.059-1.168c-1.348-0.773-3.317-1.923-5.795-3.413
	c-3.299-1.985-7.508-4.577-12.335-7.688c0.711-0.676,2.487-2.437,4.755-5.181c2.327,0.1,17.707,0.301,22.121-11.647
	C256.793,255.166,250.823,248.464,247.83,245.872z"/>
<g>
	<g style="opacity:0.7;">
		
			<linearGradient id="SVGID_00000070097353013124859350000014853886987980998274_" gradientUnits="userSpaceOnUse" x1="-427.8339" y1="475.0756" x2="-365.0585" y2="475.0756" gradientTransform="matrix(-0.8519 0.5237 0.5237 0.8519 -404.4604 87.987)">
			<stop  offset="0" style="stop-color:#42E8E0"/>
			<stop  offset="0.1507" style="stop-color:#43E3E0"/>
			<stop  offset="0.3285" style="stop-color:#45D5DF"/>
			<stop  offset="0.5199" style="stop-color:#49BDDD"/>
			<stop  offset="0.7209" style="stop-color:#4E9CDB"/>
			<stop  offset="0.9274" style="stop-color:#5472D8"/>
			<stop  offset="1" style="stop-color:#5761D7"/>
		</linearGradient>
		<path style="fill:url(#SVGID_00000070097353013124859350000014853886987980998274_);" d="M216.665,281.427
			c0,0-8.941,19.729-36.492,20.045c-21.108,0.242-29.919-8.801-32.885-13.043c-0.867-1.24-0.753-2.905,0.278-4.013
			c3.491-3.753,13.283-12.022,33.182-14.105C206.719,267.593,216.665,281.427,216.665,281.427z"/>
	</g>
	<g style="opacity:0.7;">
		
			<linearGradient id="SVGID_00000137112764045552117030000001708172521951612547_" gradientUnits="userSpaceOnUse" x1="337.6174" y1="374.5752" x2="400.3929" y2="374.5752" gradientTransform="matrix(0.9583 -0.2858 0.2858 0.9583 -190.4149 -7.8432)">
			<stop  offset="0" style="stop-color:#42E8E0"/>
			<stop  offset="0.1507" style="stop-color:#43E3E0"/>
			<stop  offset="0.3285" style="stop-color:#45D5DF"/>
			<stop  offset="0.5199" style="stop-color:#49BDDD"/>
			<stop  offset="0.7209" style="stop-color:#4E9CDB"/>
			<stop  offset="0.9274" style="stop-color:#5472D8"/>
			<stop  offset="1" style="stop-color:#5761D7"/>
		</linearGradient>
		<path style="fill:url(#SVGID_00000137112764045552117030000001708172521951612547_);" d="M244.464,268.996
			c0,0,20.665,6.49,39.27-13.833c14.253-15.571,13.388-28.166,12.204-33.206c-0.346-1.473-1.664-2.498-3.176-2.469
			c-5.125,0.1-17.816,1.884-32.635,15.327C240.785,252.36,244.464,268.996,244.464,268.996z"/>
	</g>
	<g style="opacity:0.7;">
		
			<linearGradient id="SVGID_00000085951052176343646910000006246640620877065604_" gradientUnits="userSpaceOnUse" x1="140.4231" y1="307.1447" x2="195.2021" y2="307.1447" gradientTransform="matrix(0.988 -0.1542 0.1542 0.988 40.4747 -75.1227)">
			<stop  offset="0" style="stop-color:#42E8E0"/>
			<stop  offset="0.1507" style="stop-color:#43E3E0"/>
			<stop  offset="0.3285" style="stop-color:#45D5DF"/>
			<stop  offset="0.5199" style="stop-color:#49BDDD"/>
			<stop  offset="0.7209" style="stop-color:#4E9CDB"/>
			<stop  offset="0.9274" style="stop-color:#5472D8"/>
			<stop  offset="1" style="stop-color:#5761D7"/>
		</linearGradient>
		<path style="fill:url(#SVGID_00000085951052176343646910000006246640620877065604_);" d="M228.593,219.616
			c0,0,17.106,8.039,35.579-7.349c14.153-11.79,14.884-22.782,14.452-27.278c-0.126-1.314-1.145-2.355-2.456-2.508
			c-4.443-0.516-15.626-0.463-30.018,9.42C227.365,204.8,228.593,219.616,228.593,219.616z"/>
	</g>
	<g style="opacity:0.7;">
		
			<linearGradient id="SVGID_00000163059581099774651960000001916458190716282259_" gradientUnits="userSpaceOnUse" x1="0.5057" y1="270.1055" x2="50.4006" y2="270.1055" gradientTransform="matrix(0.9982 -0.0604 0.0604 0.9982 202.6778 -102.3526)">
			<stop  offset="0" style="stop-color:#42E8E0"/>
			<stop  offset="0.1507" style="stop-color:#43E3E0"/>
			<stop  offset="0.3285" style="stop-color:#45D5DF"/>
			<stop  offset="0.5199" style="stop-color:#49BDDD"/>
			<stop  offset="0.7209" style="stop-color:#4E9CDB"/>
			<stop  offset="0.9274" style="stop-color:#5472D8"/>
			<stop  offset="1" style="stop-color:#5761D7"/>
		</linearGradient>
		<path style="fill:url(#SVGID_00000163059581099774651960000001916458190716282259_);" d="M220.217,179.137
			c0,0,14.822,8.759,32.895-3.609c13.846-9.476,15.453-19.381,15.448-23.495c-0.002-1.203-0.836-2.234-2.012-2.485
			c-3.985-0.849-14.13-1.762-28.03,5.964C220.376,165.596,220.217,179.137,220.217,179.137z"/>
	</g>
	<g style="opacity:0.7;">
		
			<linearGradient id="SVGID_00000166634782730095377110000009188128671394695861_" gradientUnits="userSpaceOnUse" x1="94.6543" y1="231.4718" x2="136.8008" y2="231.4718" gradientTransform="matrix(0.992 -0.1264 0.1264 0.992 91.9587 -85.0939)">
			<stop  offset="0" style="stop-color:#42E8E0"/>
			<stop  offset="0.1507" style="stop-color:#43E3E0"/>
			<stop  offset="0.3285" style="stop-color:#45D5DF"/>
			<stop  offset="0.5199" style="stop-color:#49BDDD"/>
			<stop  offset="0.7209" style="stop-color:#4E9CDB"/>
			<stop  offset="0.9274" style="stop-color:#5472D8"/>
			<stop  offset="1" style="stop-color:#5761D7"/>
		</linearGradient>
		<path style="fill:url(#SVGID_00000166634782730095377110000009188128671394695861_);" d="M216.387,142.552
			c0,0,12.983,6.553,27.523-4.883c11.14-8.761,11.94-17.2,11.705-20.668c-0.069-1.014-0.83-1.836-1.835-1.982
			c-3.406-0.493-12.008-0.694-23.291,6.596C215.763,131.13,216.387,142.552,216.387,142.552z"/>
	</g>
	<g style="opacity:0.7;">
		
			<linearGradient id="SVGID_00000078734419118080621690000011569228033162995613_" gradientUnits="userSpaceOnUse" x1="323.9294" y1="217.8884" x2="366.0759" y2="217.8884" gradientTransform="matrix(0.959 -0.2835 0.2835 0.959 -163.474 -15.673)">
			<stop  offset="0" style="stop-color:#42E8E0"/>
			<stop  offset="0.1507" style="stop-color:#43E3E0"/>
			<stop  offset="0.3285" style="stop-color:#45D5DF"/>
			<stop  offset="0.5199" style="stop-color:#49BDDD"/>
			<stop  offset="0.7209" style="stop-color:#4E9CDB"/>
			<stop  offset="0.9274" style="stop-color:#5472D8"/>
			<stop  offset="1" style="stop-color:#5761D7"/>
		</linearGradient>
		<path style="fill:url(#SVGID_00000078734419118080621690000011569228033162995613_);" d="M211.801,111.106
			c0,0,13.864,4.391,26.388-9.224c9.595-10.431,9.035-18.889,8.248-22.274c-0.23-0.989-1.113-1.68-2.128-1.663
			c-3.441,0.059-11.965,1.236-21.936,10.237C209.357,99.93,211.801,111.106,211.801,111.106z"/>
	</g>
	<g style="opacity:0.7;">
		
			<linearGradient id="SVGID_00000167355135139437626990000016198934912116254093_" gradientUnits="userSpaceOnUse" x1="-394.5198" y1="404.6394" x2="-337.6995" y2="404.6394" gradientTransform="matrix(-0.8686 0.4955 0.4955 0.8686 -350.6795 65.1593)">
			<stop  offset="0" style="stop-color:#42E8E0"/>
			<stop  offset="0.1507" style="stop-color:#43E3E0"/>
			<stop  offset="0.3285" style="stop-color:#45D5DF"/>
			<stop  offset="0.5199" style="stop-color:#49BDDD"/>
			<stop  offset="0.7209" style="stop-color:#4E9CDB"/>
			<stop  offset="0.9274" style="stop-color:#5472D8"/>
			<stop  offset="1" style="stop-color:#5761D7"/>
		</linearGradient>
		<path style="fill:url(#SVGID_00000167355135139437626990000016198934912116254093_);" d="M199.227,232.938
			c0,0-8.673,17.583-33.606,17.051c-19.102-0.407-26.805-8.848-29.363-12.775c-0.748-1.147-0.595-2.651,0.37-3.622
			c3.27-3.292,12.373-10.482,30.436-11.776C190.64,220.129,199.227,232.938,199.227,232.938z"/>
	</g>
	<g style="opacity:0.7;">
		
			<linearGradient id="SVGID_00000155869099125950440210000015950619557285070009_" gradientUnits="userSpaceOnUse" x1="-198.8374" y1="283.6234" x2="-150.267" y2="283.6234" gradientTransform="matrix(-0.9328 0.3604 0.3604 0.9328 -106.4048 -14.3074)">
			<stop  offset="0" style="stop-color:#42E8E0"/>
			<stop  offset="0.1507" style="stop-color:#43E3E0"/>
			<stop  offset="0.3285" style="stop-color:#45D5DF"/>
			<stop  offset="0.5199" style="stop-color:#49BDDD"/>
			<stop  offset="0.7209" style="stop-color:#4E9CDB"/>
			<stop  offset="0.9274" style="stop-color:#5472D8"/>
			<stop  offset="1" style="stop-color:#5761D7"/>
		</linearGradient>
		<path style="fill:url(#SVGID_00000155869099125950440210000015950619557285070009_);" d="M185.471,189.421
			c0,0-9.572,13.756-30.579,10.128c-16.094-2.779-21.529-10.896-23.19-14.541c-0.486-1.065-0.165-2.316,0.775-3.014
			c3.183-2.366,11.794-7.283,27.227-6.073C179.846,177.5,185.471,189.421,185.471,189.421z"/>
	</g>
	<g style="opacity:0.7;">
		
			<linearGradient id="SVGID_00000158021398353970098270000014302776701599285945_" gradientUnits="userSpaceOnUse" x1="2.1562" y1="201.7792" x2="44.9399" y2="201.7792" gradientTransform="matrix(-0.9758 0.2187 0.2187 0.9758 136.859 -56.4709)">
			<stop  offset="0" style="stop-color:#42E8E0"/>
			<stop  offset="0.1507" style="stop-color:#43E3E0"/>
			<stop  offset="0.3285" style="stop-color:#45D5DF"/>
			<stop  offset="0.5199" style="stop-color:#49BDDD"/>
			<stop  offset="0.7209" style="stop-color:#4E9CDB"/>
			<stop  offset="0.9274" style="stop-color:#5472D8"/>
			<stop  offset="1" style="stop-color:#5761D7"/>
		</linearGradient>
		<path style="fill:url(#SVGID_00000158021398353970098270000014302776701599285945_);" d="M181.12,150.873
			c0,0-10.13,10.739-27.959,4.845c-13.66-4.516-17.339-12.294-18.312-15.686c-0.285-0.991,0.158-2.039,1.067-2.525
			c3.081-1.647,11.223-4.81,24.511-1.749C177.77,139.755,181.12,150.873,181.12,150.873z"/>
	</g>
	<g style="opacity:0.7;">
		
			<linearGradient id="SVGID_00000013159498735468142980000008572737273040651393_" gradientUnits="userSpaceOnUse" x1="439.2374" y1="177.1279" x2="479.2407" y2="177.1279" gradientTransform="matrix(-0.9959 -0.0902 -0.0902 0.9959 634.632 -30.6625)">
			<stop  offset="0" style="stop-color:#42E8E0"/>
			<stop  offset="0.1507" style="stop-color:#43E3E0"/>
			<stop  offset="0.3285" style="stop-color:#45D5DF"/>
			<stop  offset="0.5199" style="stop-color:#49BDDD"/>
			<stop  offset="0.7209" style="stop-color:#4E9CDB"/>
			<stop  offset="0.9274" style="stop-color:#5472D8"/>
			<stop  offset="1" style="stop-color:#5761D7"/>
		</linearGradient>
		<path style="fill:url(#SVGID_00000013159498735468142980000008572737273040651393_);" d="M180.356,115.64
			c0,0-12.088,6.663-26.274-3.681c-10.869-7.925-11.919-15.902-11.816-19.199c0.03-0.964,0.723-1.77,1.672-1.943
			c3.214-0.585,11.366-1.073,22.319,5.452C180.554,104.785,180.356,115.64,180.356,115.64z"/>
	</g>
	<g style="opacity:0.7;">
		
			<linearGradient id="SVGID_00000049180950858184162830000014443810451374978711_" gradientUnits="userSpaceOnUse" x1="1533.792" y1="1369.3207" x2="1568.1053" y2="1369.3207" gradientTransform="matrix(-0.2224 -0.975 -0.975 0.2224 1885.0087 1274.6982)">
			<stop  offset="0" style="stop-color:#42E8E0"/>
			<stop  offset="0.1507" style="stop-color:#43E3E0"/>
			<stop  offset="0.3285" style="stop-color:#45D5DF"/>
			<stop  offset="0.5199" style="stop-color:#49BDDD"/>
			<stop  offset="0.7209" style="stop-color:#4E9CDB"/>
			<stop  offset="0.9274" style="stop-color:#5472D8"/>
			<stop  offset="1" style="stop-color:#5761D7"/>
		</linearGradient>
		<path style="fill:url(#SVGID_00000049180950858184162830000014443810451374978711_);" d="M200.812,85.611
			c0,0-8.644-8.091-3.972-22.409c3.58-10.97,9.807-13.944,12.524-14.735c0.794-0.231,1.636,0.12,2.029,0.848
			c1.33,2.466,3.892,8.986,1.478,19.653C209.719,82.891,200.812,85.611,200.812,85.611z"/>
	</g>
	
		<linearGradient id="SVGID_00000037694839824899518430000009670034137566710718_" gradientUnits="userSpaceOnUse" x1="706.6647" y1="157.3722" x2="871.5317" y2="157.3722" gradientTransform="matrix(-0.9599 -0.2802 -0.2802 0.9599 1016.5353 249.8787)">
		<stop  offset="0" style="stop-color:#42E8E0"/>
		<stop  offset="0.1507" style="stop-color:#43E3E0"/>
		<stop  offset="0.3285" style="stop-color:#45D5DF"/>
		<stop  offset="0.5199" style="stop-color:#49BDDD"/>
		<stop  offset="0.7209" style="stop-color:#4E9CDB"/>
		<stop  offset="0.9274" style="stop-color:#5472D8"/>
		<stop  offset="1" style="stop-color:#5761D7"/>
	</linearGradient>
	<path style="opacity:0.7;fill:url(#SVGID_00000037694839824899518430000009670034137566710718_);" d="M164.447,286.69
		c-0.001-0.209,0.165-0.379,0.376-0.379c33.731-0.175,61.607-7.101,66.002-8.25c-1.467-3.264-2.997-6.787-4.558-10.552
		c-2.343-5.556-4.683-11.656-7.074-18.135c-0.575-1.628-1.158-3.279-1.747-4.949c-0.295-0.835-0.591-1.676-0.889-2.521
		c-0.281-0.851-0.564-1.708-0.848-2.568c-0.568-1.721-1.143-3.461-1.723-5.218c-0.335-1.087-0.676-2.191-1.015-3.291
		c-4.108,0.917-27.5,5.781-61.018,5.678c-0.208,0-0.377-0.17-0.377-0.378c0.001-0.21,0.173-0.378,0.378-0.377
		c33.283,0.102,56.55-4.703,60.793-5.648c-0.138-0.448-0.274-0.888-0.413-1.338c-1.141-3.59-2.135-7.29-3.195-11.017
		c-0.547-1.859-0.991-3.76-1.488-5.655c-0.48-1.9-0.987-3.803-1.451-5.725c-1.244-5.345-2.446-10.764-3.508-16.228
		c-4.436,0.005-32.408-0.118-58.96-3.809c-0.207-0.029-0.351-0.219-0.322-0.425c0.028-0.207,0.22-0.351,0.425-0.322
		c26.211,3.643,53.821,3.803,58.706,3.802c-0.414-2.16-0.809-4.325-1.168-6.498c-1.706-9.9-2.969-19.876-3.749-29.642
		c-4.587-0.352-27.622-2.405-50.046-9.508c-0.199-0.063-0.309-0.275-0.245-0.473c0.063-0.199,0.275-0.31,0.473-0.246
		c22.188,7.027,44.974,9.093,49.765,9.465c-0.433-5.591-0.714-11.114-0.822-16.509c-0.071-3.214-0.078-6.379-0.034-9.491
		c-4.999-3.207-31.306-20.01-43.924-26.687c-0.184-0.097-0.255-0.326-0.157-0.51c0.096-0.185,0.325-0.257,0.51-0.157
		c12.343,6.531,37.73,22.714,43.585,26.465c0.194-11.13,1.072-21.521,2.343-30.652c0.2-1.491,0.395-2.951,0.587-4.378
		c0.195-1.426,0.494-2.803,0.726-4.155c0.493-2.697,0.961-5.256,1.4-7.661c0.555-2.381,1.075-4.608,1.555-6.668
		c0.501-2.054,0.888-3.96,1.368-5.647c1.956-6.738,3.074-10.589,3.074-10.589l0.248,0.077c0,0-1.063,3.86-2.924,10.614
		c-0.456,1.69-0.816,3.599-1.288,5.655c-0.451,2.061-0.939,4.291-1.46,6.672c-0.405,2.404-0.837,4.962-1.292,7.659
		c-0.213,1.35-0.492,2.726-0.667,4.151c-0.171,1.425-0.346,2.884-0.525,4.373c-1.028,8.214-1.727,17.434-1.885,27.284
		c4.517-3.772,27.523-23.042,40.174-34.79c0.154-0.14,0.391-0.133,0.534,0.02c0.142,0.153,0.133,0.392-0.02,0.534
		c-13.236,12.291-37.782,32.797-40.699,35.229c-0.013,1.014-0.019,2.034-0.02,3.061c0.171,0.115,0.221,0.344,0.109,0.518
		c-0.028,0.043-0.07,0.067-0.11,0.094c0.005,2.936,0.056,5.917,0.164,8.941c0.147,4.361,0.417,8.808,0.781,13.3
		c4.167-1.307,25.554-8.561,46.981-25.771c0.165-0.135,0.4-0.105,0.531,0.058c0.131,0.163,0.105,0.4-0.057,0.53
		c-12.598,10.119-25.187,16.814-34.309,20.892c-6.656,2.977-11.464,4.559-13.08,5.061c0.892,10.692,2.367,21.657,4.393,32.525
		c0.207,1.154,0.439,2.301,0.662,3.451c5.91-2.518,29.811-12.978,51.965-26.627c0.173-0.11,0.409-0.054,0.52,0.124
		c0.109,0.177,0.054,0.41-0.124,0.52c-17.717,10.915-36.547,19.794-46.439,24.218c-2.61,1.167-4.594,2.022-5.775,2.524
		c1.269,6.429,2.761,12.798,4.309,19.061c0.488,1.903,1.017,3.788,1.52,5.669c0.52,1.877,0.986,3.758,1.555,5.598
		c1.043,3.484,2.03,6.939,3.132,10.304c6.877-3.832,30.297-17.297,51.756-34.435c0.163-0.133,0.4-0.103,0.531,0.06
		c0.13,0.162,0.103,0.401-0.06,0.531c-21.638,17.281-45.265,30.833-51.991,34.577c0.561,1.734,1.117,3.455,1.668,5.158
		c0.6,1.737,1.195,3.457,1.783,5.159c0.294,0.851,0.587,1.697,0.877,2.538c0.308,0.835,0.613,1.666,0.917,2.492
		c0.608,1.651,1.209,3.282,1.802,4.891c2.462,6.401,4.868,12.423,7.268,17.904c1.467,3.406,2.906,6.613,4.291,9.602
		c4.457-2.742,27.276-17.379,51.299-43.664c0.141-0.151,0.379-0.165,0.534-0.024c0.153,0.141,0.164,0.38,0.024,0.534
		c-24.194,26.472-47.2,41.181-51.535,43.843c2.958,6.35,5.654,11.688,7.813,15.794c1.622,3.082,2.946,5.475,3.865,7.089
		c0.917,1.623,1.418,2.444,1.418,2.444l-3.243,1.932c0,0-0.529-0.896-1.435-2.554c-0.916-1.66-2.225-4.105-3.823-7.246
		c-2.037-4.007-4.552-9.152-7.304-15.241c-4.002,1.053-32.166,8.131-66.313,8.307C164.618,287.067,164.447,286.899,164.447,286.69z"
		/>
</g>
<g>
	
		<linearGradient id="SVGID_00000096043614914618304310000008546352385000556969_" gradientUnits="userSpaceOnUse" x1="130.2816" y1="243.0502" x2="192.6297" y2="243.0502" gradientTransform="matrix(0.9924 0.1233 -0.1233 0.9924 212.7758 -28.258)">
		<stop  offset="0" style="stop-color:#42E8E0"/>
		<stop  offset="0.1507" style="stop-color:#43E3E0"/>
		<stop  offset="0.3285" style="stop-color:#45D5DF"/>
		<stop  offset="0.5199" style="stop-color:#49BDDD"/>
		<stop  offset="0.7209" style="stop-color:#4E9CDB"/>
		<stop  offset="0.9274" style="stop-color:#5472D8"/>
		<stop  offset="1" style="stop-color:#5761D7"/>
	</linearGradient>
	<path style="opacity:0.7;fill:url(#SVGID_00000096043614914618304310000008546352385000556969_);" d="M379.172,194.082
		c0.001-0.025,0.001-0.05,0.002-0.074c1.62-55.46-14.898-71.997-29.986-59.065c-6.681,5.727-9.141,14.915-6.91,23.428
		c0.73,2.787,1.16,5.701,0.759,8.922c-0.51,4.106-2.611,6.765-5.304,8.477c-5.745,3.651-9.657,9.585-10.463,16.344
		c-0.438,3.673-0.789,7.493-1.044,11.457c-4.245,66.066-21.255,105.961-26.019,121.814c-1.468,4.885,4.12,8.818,8.22,5.782
		c11.133-8.243,40.852-33.217,58.048-75.782c2.414-5.976,2.064-12.664-0.63-18.519c-1.039-2.259-1.549-5.128-1.233-8.773
		c0.723-8.348,5.221-14.972,9.979-21.222C377.4,203.181,379.035,198.718,379.172,194.082z"/>
	
		<linearGradient id="SVGID_00000147903458765581711720000010558751217023325837_" gradientUnits="userSpaceOnUse" x1="132.5944" y1="242.9242" x2="191.9559" y2="242.9242" gradientTransform="matrix(0.9924 0.1233 -0.1233 0.9924 212.7758 -28.258)">
		<stop  offset="0" style="stop-color:#42E8E0"/>
		<stop  offset="0.1507" style="stop-color:#43E3E0"/>
		<stop  offset="0.3285" style="stop-color:#45D5DF"/>
		<stop  offset="0.5199" style="stop-color:#49BDDD"/>
		<stop  offset="0.7209" style="stop-color:#4E9CDB"/>
		<stop  offset="0.9274" style="stop-color:#5472D8"/>
		<stop  offset="1" style="stop-color:#5761D7"/>
	</linearGradient>
	<path style="opacity:0.7;fill:url(#SVGID_00000147903458765581711720000010558751217023325837_);" d="M353,199.072l26.273-10.494
		c0.001-0.151,0.004-0.307,0.005-0.457l-26.22,10.473c1.829-15.396,3.02-31.74,3.572-48.939l16.835-4.631
		c-0.052-0.134-0.106-0.263-0.159-0.395l-16.662,4.584c0.188-5.986,0.294-12.08,0.327-18.269c-0.141,0.024-0.283,0.056-0.425,0.085
		c-0.1,17.598-0.828,33.7-2.037,48.397l-12.041-9.599c-0.048,0.143-0.098,0.283-0.151,0.421l12.148,9.685
		c-1.615,19.416-4.063,36.385-6.982,51.146l-21.766-20.457c-0.014,0.18-0.029,0.359-0.044,0.539l21.713,20.406
		c-4.963,24.918-11.266,43.522-17.158,56.985c-0.351,0.802-0.702,1.587-1.054,2.362l-12.805-19.46
		c-0.044,0.19-0.089,0.377-0.133,0.567l12.732,19.349c-11.851,25.951-23.881,36.851-27.194,39.515
		c0.108,0.095,0.22,0.185,0.336,0.271c2.411-1.953,8.974-7.888,16.731-20.07l11.689,0.202c0.039-0.041,0.077-0.081,0.116-0.123
		c0.076-0.081,0.152-0.162,0.229-0.244c0.015-0.016,0.031-0.033,0.046-0.05l-11.814-0.204c3.676-5.821,7.609-13.038,11.488-21.895
		c4.104-9.371,7.752-19.657,10.931-30.773l25.335-3.58c0.06-0.151,0.12-0.301,0.18-0.452l-25.385,3.587
		c3.26-11.469,6.02-23.82,8.253-36.976C351.084,213.635,352.115,206.462,353,199.072z"/>
</g>
<path style="opacity:0.4;fill:#0B0244;" d="M466.35,295.915c5.343-10.361,6.99-18.068,6.009-23.298
	c-0.009-0.045-0.018-0.09-0.027-0.135l-0.004,0c-1.149-5.802-5.564-8.509-11.733-8.389c0.002-0.004,0.004-0.007,0.005-0.01
	c-0.14,0.003-0.282,0.009-0.423,0.015c0,0.001-0.001,0.002-0.001,0.003c-2.428,0.096-5.112,0.612-7.97,1.547
	c-7.819,2.556-12.586,7.242-12.757,11.904c-0.056,1.526-0.428,3.098-1.664,4.773c-0.378,0.512-0.822,0.97-1.316,1.386
	c-0.04,0.033-0.079,0.067-0.12,0.1c-1.554,1.262-3.602,2.093-5.82,2.622c-6.383,1.524-11.651,4.386-14.212,7.904
	c-1.392,1.912-2.742,3.908-4.039,5.987c-21.62,34.649-48.279,54.548-56.993,62.596c-1.219,1.126-1.008,2.247,0.014,3.018
	c-0.002,0.001-0.005,0.001-0.007,0.002c0.077,0.058,0.158,0.114,0.243,0.167c0.001-0.001,0.003-0.001,0.005-0.002
	c1.287,0.806,3.551,1.13,5.942,0.457c5.433-1.53,14.901-4.447,26.109-8.95l0.005,0c0.047-0.019,0.094-0.038,0.142-0.057
	c0.093-0.038,0.187-0.075,0.281-0.113c0.019-0.008,0.038-0.015,0.057-0.023l-0.002,0c14.862-6.005,32.707-14.786,48.284-26.83
	c0.206-0.16,0.402-0.322,0.595-0.484h0.024c0.097-0.076,0.194-0.151,0.29-0.227l-0.053,0c3.219-2.835,4.39-6.098,3.491-9.131
	c-0.376-1.269-0.091-2.823,1.178-4.729c2.907-4.365,8.91-7.55,15.058-10.519c3.629-1.753,6.359-3.998,7.725-6.441
	c0.007-0.013,0.015-0.026,0.022-0.039c0.549-0.983,1.061-1.941,1.549-2.88c0.039-0.075,0.081-0.152,0.119-0.227L466.35,295.915z"/>
<g>
	
		<linearGradient id="SVGID_00000159440565893875844880000008560016687306382739_" gradientUnits="userSpaceOnUse" x1="-66.6231" y1="323.9792" x2="14.1032" y2="323.9792" gradientTransform="matrix(0.9686 0.2485 -0.2485 0.9686 511.7584 -61.8312)">
		<stop  offset="0" style="stop-color:#42E8E0"/>
		<stop  offset="0.1507" style="stop-color:#43E3E0"/>
		<stop  offset="0.3285" style="stop-color:#45D5DF"/>
		<stop  offset="0.5199" style="stop-color:#49BDDD"/>
		<stop  offset="0.7209" style="stop-color:#4E9CDB"/>
		<stop  offset="0.9274" style="stop-color:#5472D8"/>
		<stop  offset="1" style="stop-color:#5761D7"/>
	</linearGradient>
	<path style="opacity:0.7;fill:url(#SVGID_00000159440565893875844880000008560016687306382739_);" d="M458.604,201.605
		c0.005-0.032,0.01-0.063,0.015-0.095c11.21-70.96-7.281-94.918-28.787-80.793c-9.524,6.255-14.195,17.651-12.732,28.951
		c0.479,3.7,0.551,7.512-0.493,11.583c-1.331,5.189-4.467,8.259-8.208,10.014c-7.979,3.743-13.98,10.721-16.128,19.268
		c-1.167,4.644-2.247,9.493-3.227,14.542c-16.328,84.149-44.742,132.586-53.47,152.162c-2.69,6.033,3.839,12.003,9.605,8.779
		c15.656-8.754,57.934-35.935,87.026-87.77c4.085-7.278,4.736-15.924,2.24-23.888c-0.963-3.072-1.145-6.841-0.14-11.47
		c2.303-10.603,9.171-18.369,16.31-25.613C454.831,212.999,457.665,207.536,458.604,201.605z"/>
	
		<linearGradient id="SVGID_00000129195422535639531350000006867870531462636194_" gradientUnits="userSpaceOnUse" x1="-63.628" y1="323.8162" x2="13.2304" y2="323.8162" gradientTransform="matrix(0.9686 0.2485 -0.2485 0.9686 511.7584 -61.8312)">
		<stop  offset="0" style="stop-color:#42E8E0"/>
		<stop  offset="0.1507" style="stop-color:#43E3E0"/>
		<stop  offset="0.3285" style="stop-color:#45D5DF"/>
		<stop  offset="0.5199" style="stop-color:#49BDDD"/>
		<stop  offset="0.7209" style="stop-color:#4E9CDB"/>
		<stop  offset="0.9274" style="stop-color:#5472D8"/>
		<stop  offset="1" style="stop-color:#5761D7"/>
	</linearGradient>
	<path style="opacity:0.7;fill:url(#SVGID_00000129195422535639531350000006867870531462636194_);" d="M424.17,203.704l35.47-9.152
		c0.026-0.194,0.056-0.393,0.082-0.586l-35.398,9.133c4.883-19.472,9.104-40.266,12.644-62.265l22.383-3.176
		c-0.045-0.181-0.093-0.355-0.139-0.533l-22.154,3.144c1.227-7.657,2.367-15.466,3.428-23.409c-0.186,0.008-0.373,0.025-0.56,0.04
		c-3.025,22.585-6.612,43.145-10.584,61.821l-13.884-14.311c-0.085,0.175-0.173,0.347-0.263,0.516l14.008,14.438
		c-5.271,24.67-11.207,46.06-17.387,64.537l-24.587-29.856c-0.048,0.229-0.097,0.456-0.145,0.685l24.526,29.781
		c-10.476,31.185-21.634,54.04-31.417,70.36c-0.583,0.972-1.163,1.922-1.743,2.86l-13.242-27.101
		c-0.088,0.237-0.176,0.47-0.264,0.706l13.167,26.946c-19.493,31.378-36.737,43.396-41.43,46.272
		c0.124,0.14,0.252,0.274,0.386,0.404c3.418-2.111,12.824-8.653,24.791-23.021l14.978,2.184c0.056-0.047,0.112-0.092,0.169-0.139
		c0.111-0.092,0.223-0.183,0.334-0.276c0.022-0.018,0.045-0.038,0.067-0.056l-15.139-2.207c5.68-6.871,11.919-15.492,18.359-26.228
		c6.813-11.359,13.192-23.969,19.105-37.722l33.127-0.427c0.102-0.184,0.204-0.367,0.306-0.551l-33.193,0.427
		c6.075-14.193,11.652-29.601,16.686-46.13C419.312,222.093,421.817,213.05,424.17,203.704z"/>
</g>
<g>
	<g>
		<g>
			<g>
				
					<linearGradient id="SVGID_00000034804556998994953640000006248760065217921974_" gradientUnits="userSpaceOnUse" x1="-2604.7554" y1="3666.7043" x2="-2223.3137" y2="3493.8176" gradientTransform="matrix(1 7.000000e-04 -7.000000e-04 1 2573.7136 -3298.1904)">
					<stop  offset="0" style="stop-color:#5761D7"/>
					<stop  offset="0.1779" style="stop-color:#5C66D9"/>
					<stop  offset="0.3876" style="stop-color:#6A73DF"/>
					<stop  offset="0.6134" style="stop-color:#8289E8"/>
					<stop  offset="0.849" style="stop-color:#A3A7F5"/>
					<stop  offset="1" style="stop-color:#BCBEFF"/>
				</linearGradient>
				<path style="fill:url(#SVGID_00000034804556998994953640000006248760065217921974_);" d="M238.841,67.424l6.008-3.436
					l0.001,0.02c0.464-0.241,1.05-0.221,1.698,0.154l98.607,57.019c1.483,0.857,2.684,3.156,2.682,5.133l-0.163,242.143
					c-0.001,1.09-0.374,1.839-0.951,2.163l0.017,0.01l-6,3.433l-0.244-12.476l-88.665-51.27c-1.483-0.857-2.684-3.156-2.682-5.134
					l0.156-231.862c-0.231,0.727-0.407,1.258-0.432,1.274C248.788,74.651,238.841,67.424,238.841,67.424z"/>
				
					<linearGradient id="SVGID_00000057843834135256698380000003248794726314253191_" gradientUnits="userSpaceOnUse" x1="2997.7236" y1="3439.7356" x2="2997.7236" y2="3421.717" gradientTransform="matrix(-1 -7.000000e-04 -7.000000e-04 1 3333.4607 -3298.1047)">
					<stop  offset="0" style="stop-color:#C0BFF6"/>
					<stop  offset="0.2938" style="stop-color:#C5C4F7"/>
					<stop  offset="0.6399" style="stop-color:#D3D2F9"/>
					<stop  offset="1" style="stop-color:#E9E9FD"/>
				</linearGradient>
				<path style="fill:url(#SVGID_00000057843834135256698380000003248794726314253191_);" d="M347.768,125.488l-24.367,14.038
					l-4.5-2.602l26.732-15.401C346.694,122.391,347.534,123.959,347.768,125.488z"/>
				
					<linearGradient id="SVGID_00000133508963780346510800000006106083346289571737_" gradientUnits="userSpaceOnUse" x1="3527.0667" y1="4890.4258" x2="3527.0667" y2="4674.522" gradientTransform="matrix(-0.8657 -0.5006 -8.000000e-04 1.1547 3347.0417 -3535.9534)">
					<stop  offset="0" style="stop-color:#C0BFF6"/>
					<stop  offset="0.2938" style="stop-color:#C5C4F7"/>
					<stop  offset="0.6399" style="stop-color:#D3D2F9"/>
					<stop  offset="1" style="stop-color:#E9E9FD"/>
				</linearGradient>
				<path style="fill:url(#SVGID_00000133508963780346510800000006106083346289571737_);" d="M240.447,316.863l98.607,57.019
					c1.483,0.857,2.686-0.051,2.687-2.029l0.163-242.143c0.001-1.978-1.2-4.276-2.682-5.134l-98.607-57.019
					c-1.483-0.857-2.686,0.051-2.687,2.029l-0.163,242.143C237.763,313.707,238.964,316.005,240.447,316.863z"/>
				<path style="fill:#FFFFFF;" d="M339.221,124.576l-98.607-57.019c-0.882-0.51-1.658-0.384-2.148,0.209
					c0.416-0.111,0.905-0.039,1.434,0.266l98.607,57.019c1.483,0.857,2.684,3.156,2.682,5.134l-0.163,242.143
					c-0.001,0.801-0.205,1.415-0.539,1.819c0.751-0.201,1.253-1.022,1.254-2.295l0.163-242.143
					C341.905,127.732,340.704,125.434,339.221,124.576z"/>
				<polygon style="fill:#24126A;" points="240.007,305.862 339.439,363.358 339.626,140.088 240.194,82.592 				"/>
				<path style="fill:#5761D7;" d="M279.444,99.393l18.809,10.914c0.549,0.317,1.016,0.413,1.219-0.104
					c0.068-0.174,0.106-0.387,0.107-0.634l0,0c0.001-0.979-0.594-2.117-1.328-2.541l-19.008-10.991
					c-0.057-0.033-0.112-0.1-0.169-0.084c-0.599,0.167-0.699,0.283-0.699,1.186l0.084,0.254
					C278.459,98.371,278.71,98.968,279.444,99.393z"/>
				<path style="fill:#BCBEFF;" d="M279.071,95.96c-0.068,0.173-0.105,0.385-0.106,0.631c-0.001,0.979,0.594,2.117,1.328,2.541
					l19.008,10.991c0.059,0.034,0.116,0.054,0.173,0.077c-0.203,0.518-0.675,0.691-1.225,0.373l-19.008-10.991
					c-0.734-0.424-1.328-1.562-1.328-2.541C277.914,96.141,278.42,95.698,279.071,95.96z"/>
			</g>
		</g>
	</g>
	<g style="opacity:0.11;">
		<defs>
			<polygon id="SVGID_00000099658501140275254580000016980418664182919858_" style="opacity:0.11;" points="237.773,299.447 
				341.749,359.571 341.896,141.992 237.919,81.868 			"/>
		</defs>
		<clipPath id="SVGID_00000043441938646164079530000006372525049635493311_">
			<use xlink:href="#SVGID_00000099658501140275254580000016980418664182919858_"  style="overflow:visible;"/>
		</clipPath>
	</g>
</g>
<g>
	
		<radialGradient id="SVGID_00000018915978709098076940000005874969188000454788_" cx="242.5402" cy="-22.2704" r="103.3069" gradientTransform="matrix(0.866 0.5 0 1 37.354 63.3003)" gradientUnits="userSpaceOnUse">
		<stop  offset="0" style="stop-color:#42E8E0"/>
		<stop  offset="0.1507" style="stop-color:#43E3E0"/>
		<stop  offset="0.3285" style="stop-color:#45D5DF"/>
		<stop  offset="0.5199" style="stop-color:#49BDDD"/>
		<stop  offset="0.7209" style="stop-color:#4E9CDB"/>
		<stop  offset="0.9274" style="stop-color:#5472D8"/>
		<stop  offset="1" style="stop-color:#5761D7"/>
	</radialGradient>
	<polygon style="opacity:0.7;fill:url(#SVGID_00000018915978709098076940000005874969188000454788_);" points="328.469,273.278 
		251.901,229.072 251.901,172.733 328.469,216.939 	"/>
	
		<linearGradient id="SVGID_00000038399563444874653310000004911908318950324887_" gradientUnits="userSpaceOnUse" x1="247.7454" y1="290.1413" x2="336.16" y2="290.1413" gradientTransform="matrix(0.866 0.5 0 1.1547 37.354 -269.0518)">
		<stop  offset="0" style="stop-color:#42E8E0"/>
		<stop  offset="0.1507" style="stop-color:#43E3E0"/>
		<stop  offset="0.3285" style="stop-color:#45D5DF"/>
		<stop  offset="0.5199" style="stop-color:#49BDDD"/>
		<stop  offset="0.7209" style="stop-color:#4E9CDB"/>
		<stop  offset="0.9274" style="stop-color:#5472D8"/>
		<stop  offset="1" style="stop-color:#5761D7"/>
	</linearGradient>
	<polygon style="opacity:0.7;fill:url(#SVGID_00000038399563444874653310000004911908318950324887_);" points="251.901,172.733 
		290.185,229.066 328.469,216.939 	"/>
	
		<linearGradient id="SVGID_00000165200264312692347850000000753265554017258657_" gradientUnits="userSpaceOnUse" x1="1330.4163" y1="4911.4995" x2="1418.8309" y2="4911.4995" gradientTransform="matrix(-0.866 -0.5 0 -1.1547 1480.6091 6592.6807)">
		<stop  offset="0" style="stop-color:#5761D7"/>
		<stop  offset="0.0726" style="stop-color:#5472D8"/>
		<stop  offset="0.2791" style="stop-color:#4E9CDB"/>
		<stop  offset="0.4801" style="stop-color:#49BDDD"/>
		<stop  offset="0.6715" style="stop-color:#45D5DF"/>
		<stop  offset="0.8493" style="stop-color:#43E3E0"/>
		<stop  offset="1" style="stop-color:#42E8E0"/>
	</linearGradient>
	<polygon style="opacity:0.7;fill:url(#SVGID_00000165200264312692347850000000753265554017258657_);" points="328.469,273.278 
		290.185,216.945 251.901,229.072 	"/>
</g>
</svg>
